PathFileType	4	(X/Y/Z)	66_2_27_p1_0-366_filt_butterworth.trc
DataRate	CameraRate	NumFrames	NumMarkers	Units	OrigDataRate	OrigDataStartFrame	OrigNumFrames
59.0	59.0	5	27	m	59.0	274	366
Frame#	Time	RHip			RKnee			RAnkle			RBigToe			RSmallToe			RHeel			LHip			LKnee			LAnkle			LBigToe			LSmallToe			LHeel			Neck			Head			Nose			RShoulder			RElbow			RWrist			RThumb			RIndex			RPinky			LShoulder			LElbow			LWrist			LThumb			LIndex			LPinky			
		X1	Y1	Z1	X2	Y2	Z2	X3	Y3	Z3	X4	Y4	Z4	X5	Y5	Z5	X6	Y6	Z6	X7	Y7	Z7	X8	Y8	Z8	X9	Y9	Z9	X10	Y10	Z10	X11	Y11	Z11	X12	Y12	Z12	X13	Y13	Z13	X14	Y14	Z14	X15	Y15	Z15	X16	Y16	Z16	X17	Y17	Z17	X18	Y18	Z18	X19	Y19	Z19	X20	Y20	Z20	X21	Y21	Z21	X22	Y22	Z22	X23	Y23	Z23	X24	Y24	Z24	X25	Y25	Z25	X26	Y26	Z26	X27	Y27	Z27	
274	4.6440677966101696	0.5443065061935897	0.9163101533227672	0.723618129220585	0.5222801150941931	1.0042965208122727	1.1930244389934488	0.4970911568404379	1.2074542321539696	1.6096904637447569	0.4789710424395524	0.9328979378986718	1.6483080129635537	0.5480459442285659	1.0196340871978118	1.658489720224169	0.4937231777447326	1.26284783869505	1.6694922350180725	0.34919396624045607	0.9591937491261704	0.7365459737030257	0.3244810687306078	1.0407278051630946	1.1785612131382115	0.3231878438932656	1.1529844518553403	1.5841810527387115	0.3354185069670158	0.9315000744881843	1.6326580311415246	0.27915407384127183	1.01255902637963	1.640191794712309	0.3530463086515098	1.2588196657466715	1.6515226371617278	0.44877509963675255	0.8116900989588302	0.17714176020923245	0.46120993677521194	0.6843810127588438	-0.06952568291085069	0.4485500830122956	0.617009223804901	0.07405327610645784	0.5768648703068704	0.7685455379005204	0.26417665643833455	0.6046295315466458	0.8137740254517302	0.5437216461614387	0.5087071752963922	0.7433706154084004	0.7744359640913614	0.4186210516196747	0.7646576240201202	0.8534440897035287	0.410902385312581	0.798482035203097	0.8821824281483024	0.4467509176203499	0.803465104417352	0.8911827133708982	0.31242531184254674	0.8386649737389187	0.2592308087013509	0.27838597029795825	0.8318334991513104	0.5236765426667992	0.37445683670906416	0.8036449559603824	0.7656079764325784	0.44326178990658865	0.7393744167580625	0.8173590103859902	0.44290375294918694	0.7576361225400629	0.8660615015740034	0.40189908438672745	0.8015588517776026	0.8782739220914864
275	4.661016949152542	0.5455379989738913	0.9166061198922104	0.7236015344196837	0.52125965309187	1.0005152116438287	1.1931339200067703	0.49686738196761704	1.2070362722955785	1.6078473195551921	0.478849967481801	0.9339964367829134	1.647830624976804	0.5474933002542768	1.0207186146600715	1.6572114066983503	0.4935879930704519	1.2626092768663761	1.6680537375227478	0.3493800996509697	0.9592009332997325	0.7365909063364957	0.3244548822121363	1.0405851435719125	1.177427618395375	0.32316751795281246	1.1527905419066389	1.5840302144499927	0.33533960011226044	0.9312954835999782	1.6325736632103838	0.2786994666374094	1.0107521126198564	1.6394585178698349	0.3532346963975997	1.261207755761326	1.6522874321076506	0.4487792151935153	0.811629906298849	0.1771770305489126	0.46112916379071384	0.6839614638143874	-0.0704115685782012	0.44857891752535384	0.6173039926003201	0.07403036820554315	0.5768174341260771	0.7686707658584272	0.2651182883641885	0.604545554593203	0.8137705672163937	0.5437106380994011	0.5086954407809419	0.7434001834467094	0.7744314839156626	0.4174057887052107	0.7650686735321351	0.8545698965499519	0.4113098416668784	0.794838754734319	0.8815061443611358	0.447269877920539	0.8036480573471189	0.8911908870112412	0.3124314293919105	0.8386510725882312	0.25924339418945674	0.27847322156534576	0.8321120936518505	0.5240214605542952	0.37453059661683086	0.8033010056905275	0.7644769841513729	0.4435271206236449	0.7426067556781267	0.817507319111875	0.4430722358339728	0.7609734092706459	0.8654600121715096	0.401895665617511	0.80146320866521	0.8782428517319913
276	4.677966101694915	0.5461589045100532	0.9169008668787292	0.7235829114431765	0.5208232632208272	0.9992666638640556	1.1927893335500794	0.4966846594235922	1.2062574023179473	1.60639639406813	0.4798047577423104	0.9350679748107644	1.6475683138284203	0.5465548124840879	1.0220690740829426	1.6564530483235145	0.49337853299539697	1.2621694321029948	1.6656308435400786	0.3494560901402129	0.9592579846404956	0.7366439962585658	0.324394804163067	1.0404163711086645	1.1760748592547912	0.3231274351563599	1.1526134461660582	1.5838867746244358	0.33518146213869476	0.9312212630367851	1.6325056787043348	0.2785043491930726	1.0107346777301112	1.6394314945097128	0.35274199297912623	1.2616038053605	1.6530055613417658	0.44877927819697727	0.8115991755474142	0.17721306820797317	0.4610285905556145	0.6835498805891898	-0.07158395311348532	0.4486239072406358	0.6173356076209716	0.07404198063767689	0.5767873308378317	0.768717966610877	0.2663754706292662	0.6044623530137536	0.8137610306514739	0.5437124679496648	0.5086719785546954	0.7434252282272513	0.774426348617985	0.4163904131576353	0.7651812795493167	0.8564976337596166	0.4113011513355785	0.7899804425034945	0.8806537839819495	0.4473631831185609	0.803689148769293	0.8911667997596477	0.3124345180536878	0.8386263989393116	0.25925525629983115	0.27865463727261	0.8324281527347162	0.5240891464973475	0.37468489403902655	0.8028682800444241	0.7629919393205677	0.4437609190959986	0.7464907402577176	0.817518012531389	0.44333459820933696	0.7647828284444694	0.8655368478997318	0.4019734093392206	0.8010693036570025	0.8781465709749834
277	4.694915254237288	0.5462994638642449	0.9170207615377608	0.7235339428491466	0.5211928481293013	1.0013101816856758	1.192485501829605	0.4966197496538809	1.2054198462045955	1.6057307568785553	0.4816388155164012	0.9359332027194982	1.6471836862082418	0.5459752101374662	1.022426525309724	1.6561506875222645	0.4931730171772028	1.2617777280063727	1.663987832607817	0.3494318499152461	0.9594327312715869	0.7366560696163056	0.3243055433901054	1.0404172491345045	1.1751814072982658	0.32309840128649914	1.1525074327458416	1.5837872575371024	0.33504807946959103	0.9313536036770163	1.6324797352309128	0.27843413577487763	1.0112546611378246	1.639635604214692	0.35270267671830047	1.2591731736757399	1.653051128583867	0.44878140025872726	0.8116184296661907	0.17723401633453775	0.46099205348679534	0.6833329164983101	-0.07245829308334792	0.4486723898893132	0.6170556116626511	0.07409078723027017	0.5767903398632142	0.7687047936604439	0.2672623513064347	0.6044104873016325	0.8137612383534218	0.5437457407451382	0.5086450637031381	0.7434438569748991	0.7744246915253932	0.4159163081127879	0.7651426534042324	0.8581581749471127	0.4111944612775623	0.7862981015545205	0.8800326362722559	0.4472974084709113	0.8037160871211911	0.8911327046358255	0.31243741216161797	0.83860936940209	0.25926189386723875	0.2788549491707918	0.8325479004189694	0.5240868280508552	0.37484337841067106	0.8025654445126575	0.7618961784221671	0.4439789863443226	0.7495098784268324	0.8180906667193331	0.4432973980448339	0.7692816629229536	0.8667888674831734	0.40202051651414816	0.801078764248506	0.8784697186333625
278	4.711864406779661	0.5462512259572381	0.9169385737604552	0.7234638030017462	0.5224340746545529	1.0063454292278435	1.1923712462889275	0.49664073862467695	1.204914728728155	1.6055843434989034	0.4831301997460089	0.9370153066728115	1.6462708691258463	0.5460379640911915	1.0231178574775819	1.6562118871720708	0.49307239059277747	1.2615624008948056	1.6634705423503704	0.3493815392857963	0.9595776292947135	0.7366389293967799	0.3242296745153909	1.0406071389576572	1.1749137368451572	0.32310764417814974	1.1524766410926783	1.5837410389583146	0.3350016933667205	0.931558034472233	1.6324983948881964	0.278443249463125	1.0116910069571226	1.6398242877596956	0.35410254294657134	1.2536572505680574	1.6521268906077182	0.44878675009037095	0.8116780688924844	0.17723648655650187	0.46103563638690476	0.6833179941209873	-0.07277651321753328	0.44873646225461766	0.6166154389838528	0.07415282823171745	0.5768234846363811	0.7686923895721849	0.26726868146655874	0.6044116353204968	0.813791942943678	0.5437811022113508	0.5086255395885604	0.7434647465347689	0.7744340633818214	0.4157986760443847	0.7650992485896971	0.8588955824991575	0.41113836210881244	0.7848783120133864	0.8798281194364057	0.4473066983825498	0.8038164970279102	0.8911305887268988	0.3124429627900251	0.8386123984386992	0.25926006840875626	0.27899824480991403	0.8324120168294745	0.5240869395468493	0.3749575607348398	0.802455138621913	0.7615078051652004	0.4441888475637273	0.7508472191772427	0.8194002115633945	0.4431140658433913	0.7728156023591912	0.8685994157502213	0.4020487864516955	0.801583553674009	0.8794280663520699
